<svg xmlns="http://www.w3.org/2000/svg" xmlns:xlink="http://www.w3.org/1999/xlink" width="286.155" height="217.912" viewBox="0 0 286.155 217.912">
  <defs>
    <linearGradient id="linear-gradient" x1="0.5" y1="1" x2="0.5" gradientUnits="objectBoundingBox">
      <stop offset="0" stop-color="gray" stop-opacity="0.251"/>
      <stop offset="0.54" stop-color="gray" stop-opacity="0.122"/>
      <stop offset="1" stop-color="gray" stop-opacity="0.102"/>
    </linearGradient>
  </defs>
  <g id="Group_138" data-name="Group 138" transform="translate(-359.549 -287.706)">
    <g id="undraw_forgot_password_gi2d" transform="translate(359.556 287.726)">
      <g id="Group_134" data-name="Group 134" transform="translate(218.284 124.486)" opacity="0.1">
        <path id="Path_110" data-name="Path 110" d="M899.2,619.106s-20.428-2.653-5.193,30.41c0,0,13.884-5.95,14.437-19.369a10.678,10.678,0,0,0-8.954-11Z" transform="translate(-888.357 -593.592)" fill="#6c63ff"/>
        <path id="Path_111" data-name="Path 111" d="M915.537,619.06s4.625,18.435-5.477,30.462" transform="translate(-904.399 -593.595)" fill="none" stroke="#535461" stroke-miterlimit="10" stroke-width="1"/>
        <path id="Path_112" data-name="Path 112" d="M909,610.918s7.355-18.128,21.091-24.852A29.643,29.643,0,0,0,943.552,573a49.839,49.839,0,0,0,3.372-8.469" transform="translate(-903.616 -553.288)" fill="none" stroke="#535461" stroke-miterlimit="10" stroke-width="2"/>
        <path id="Path_113" data-name="Path 113" d="M1062.432,528.385c-1.432,1.8-8.842,4.434-8.842,4.434s.892-7.825,2.324-9.611a4.173,4.173,0,1,1,6.521,5.185Z" transform="translate(-1010.493 -521.428)" fill="#6c63ff"/>
        <path id="Path_114" data-name="Path 114" d="M1049.888,579.492c-2.18.733-9.828-1.09-9.828-1.09s4.995-6.072,7.175-6.8a4.173,4.173,0,1,1,2.653,7.9Z" transform="translate(-1000.492 -558.281)" fill="#6c63ff"/>
        <path id="Path_115" data-name="Path 115" d="M1002.394,644.093c-2.251-.467-7.934-5.9-7.934-5.9s7.376-2.72,9.63-2.254a4.173,4.173,0,0,1-1.7,8.153Z" transform="translate(-966.785 -606.03)" fill="#6c63ff"/>
        <path id="Path_116" data-name="Path 116" d="M948.889,683.642c-2.3-.081-8.819-4.476-8.819-4.476s6.813-3.933,9.111-3.85a4.173,4.173,0,0,1-.292,8.323Z" transform="translate(-926.582 -635.177)" fill="#6c63ff"/>
        <path id="Path_117" data-name="Path 117" d="M1012.539,564.9c.295,2.282,5.274,8.365,5.274,8.365s3.279-7.147,2.986-9.429a4.173,4.173,0,1,0-8.26,1.064Z" transform="translate(-980.091 -549.883)" fill="#6c63ff"/>
        <path id="Path_118" data-name="Path 118" d="M952.273,608.988c.963,2.087,7.535,6.4,7.535,6.4s.991-7.8.029-9.888a4.173,4.173,0,1,0-7.564,3.487Z" transform="translate(-935.229 -581.598)" fill="#6c63ff"/>
        <path id="Path_119" data-name="Path 119" d="M901.988,664.739c.595,2.222,6.346,7.585,6.346,7.585s2.3-7.52,1.7-9.742a4.173,4.173,0,1,0-8.044,2.157Z" transform="translate(-898.268 -623.28)" fill="#6c63ff"/>
        <path id="Path_120" data-name="Path 120" d="M1062.432,528.385c-1.432,1.8-8.842,4.434-8.842,4.434s.892-7.825,2.324-9.611a4.173,4.173,0,1,1,6.521,5.185Z" transform="translate(-1010.493 -521.428)" opacity="0.25"/>
        <path id="Path_121" data-name="Path 121" d="M1049.888,579.492c-2.18.733-9.828-1.09-9.828-1.09s4.995-6.072,7.175-6.8a4.173,4.173,0,1,1,2.653,7.9Z" transform="translate(-1000.492 -558.281)" opacity="0.25"/>
        <path id="Path_122" data-name="Path 122" d="M1002.394,644.093c-2.251-.467-7.934-5.9-7.934-5.9s7.376-2.72,9.63-2.254a4.173,4.173,0,0,1-1.7,8.153Z" transform="translate(-966.785 -606.03)" opacity="0.25"/>
        <path id="Path_123" data-name="Path 123" d="M948.889,683.642c-2.3-.081-8.819-4.476-8.819-4.476s6.813-3.933,9.111-3.85a4.173,4.173,0,0,1-.292,8.323Z" transform="translate(-926.582 -635.177)" opacity="0.25"/>
        <path id="Path_124" data-name="Path 124" d="M1012.539,564.9c.295,2.282,5.274,8.365,5.274,8.365s3.279-7.147,2.986-9.429a4.173,4.173,0,1,0-8.26,1.064Z" transform="translate(-980.091 -549.883)" opacity="0.25"/>
        <path id="Path_125" data-name="Path 125" d="M952.273,608.988c.963,2.087,7.535,6.4,7.535,6.4s.991-7.8.029-9.888a4.173,4.173,0,1,0-7.564,3.487Z" transform="translate(-935.229 -581.598)" opacity="0.25"/>
        <path id="Path_126" data-name="Path 126" d="M901.988,664.739c.595,2.222,6.346,7.585,6.346,7.585s2.3-7.52,1.7-9.742a4.173,4.173,0,1,0-8.044,2.157Z" transform="translate(-898.268 -623.28)" opacity="0.25"/>
        <path id="Path_127" data-name="Path 127" d="M946.56,642.531s7.355-18.128,21.091-24.852a29.643,29.643,0,0,0,13.453-13.07,49.833,49.833,0,0,0,3.372-8.469" transform="translate(-931.379 -576.653)" fill="none" stroke="#535461" stroke-miterlimit="10" stroke-width="2"/>
        <path id="Path_128" data-name="Path 128" d="M1099.942,561.111c-1.432,1.8-8.842,4.434-8.842,4.434s.892-7.825,2.324-9.612a4.173,4.173,0,0,1,6.521,5.185Z" transform="translate(-1038.219 -545.912)" fill="#6c63ff"/>
        <path id="Path_129" data-name="Path 129" d="M1087.418,611.578c-2.181.733-9.828-1.09-9.828-1.09s4.995-6.072,7.175-6.8a4.173,4.173,0,0,1,2.653,7.9Z" transform="translate(-1028.233 -582.124)" fill="#6c63ff"/>
        <path id="Path_130" data-name="Path 130" d="M1039.925,675.733c-2.251-.467-7.934-5.9-7.934-5.9s7.376-2.72,9.63-2.253a4.173,4.173,0,0,1-1.7,8.153Z" transform="translate(-994.527 -629.418)" fill="#6c63ff"/>
        <path id="Path_131" data-name="Path 131" d="M986.409,715.24c-2.3-.081-8.819-4.476-8.819-4.476s6.813-3.928,9.111-3.847a4.173,4.173,0,0,1-.292,8.323Z" transform="translate(-954.316 -658.535)" fill="#6c63ff"/>
        <path id="Path_132" data-name="Path 132" d="M1050.059,596.54c.295,2.282,5.274,8.365,5.274,8.365s3.279-7.147,2.987-9.429a4.173,4.173,0,1,0-8.26,1.064Z" transform="translate(-1007.825 -573.271)" fill="#6c63ff"/>
        <path id="Path_133" data-name="Path 133" d="M990.438,641.929c.963,2.087,7.535,6.4,7.535,6.4s.991-7.8.029-9.888a4.173,4.173,0,0,0-7.564,3.487Z" transform="translate(-963.606 -606.307)" fill="#6c63ff"/>
        <path id="Path_134" data-name="Path 134" d="M939.923,697.872c.595,2.222,6.346,7.585,6.346,7.585s2.3-7.52,1.7-9.742a4.173,4.173,0,0,0-8.044,2.157Z" transform="translate(-926.414 -648.165)" fill="#6c63ff"/>
      </g>
      <path id="Path_135" data-name="Path 135" d="M63.3,474.07c4.528,19.353,14.113,36.083,29.262,44.192,31.482,16.852,102.482,8.161,155.472-1.826a121.339,121.339,0,0,0,69-39.437Z" transform="translate(-60.214 -361.936)" fill="#6c63ff" opacity="0.1"/>
      <path id="Path_136" data-name="Path 136" d="M361.914,65.137H332.84a2.513,2.513,0,0,1,0-5.026h5.026a2.513,2.513,0,0,1,0-5.026h-3.589a2.513,2.513,0,0,1,0-5.026h15.175A40.155,40.155,0,0,0,337.616,46.8c-41.378-5.316-56.151-1.8-61.362,1.826a57.947,57.947,0,0,1-21.268,9.322c-25.533,5.261-73.277,11.6-116.551-2.034-21.508-6.782-37.494,4.674-47.074,23.808h275.6a44.905,44.905,0,0,0-3.414-15.191A2.5,2.5,0,0,1,361.914,65.137Z" transform="translate(-80.955 -44.1)" fill="#6c63ff" opacity="0.1"/>
      <path id="Path_137" data-name="Path 137" d="M52.068,319.2A128.082,128.082,0,0,0,53.2,352.967L308.465,362.3A119.98,119.98,0,0,0,326.2,335.254ZM153.03,343.287H148a2.513,2.513,0,1,1,0,5.026H118.929a2.513,2.513,0,0,1,0-5.026h5.026a2.513,2.513,0,1,1,0-5.026h-3.589a2.513,2.513,0,0,1,0-5.026h29.075a2.513,2.513,0,1,1,0,5.026h3.589a2.513,2.513,0,0,1,0,5.026Z" transform="translate(-51.45 -247.461)" fill="#6c63ff" opacity="0.1"/>
      <path id="Path_138" data-name="Path 138" d="M339.359,181.38,60.667,188.162A111.349,111.349,0,0,0,54,216.939H334.476a119.061,119.061,0,0,0,4.051-18.344A86.916,86.916,0,0,0,339.359,181.38Zm-228.78,22.215h-5.026a2.513,2.513,0,0,1,0,5.026H76.478a2.513,2.513,0,0,1,0-5.026H81.5a2.513,2.513,0,0,1,0-5.026H77.915a2.513,2.513,0,1,1,0-5.026H106.99a2.513,2.513,0,0,1,0,5.026h3.589a2.513,2.513,0,0,1,0,5.026Z" transform="translate(-53.34 -145.588)" fill="#6c63ff" opacity="0.1"/>
      <path id="Path_139" data-name="Path 139" d="M403.243,273.324s-11.622-63.746-33.785-74.091c-18.78-8.772-39.088-14.685-44.862-16.289a24.938,24.938,0,0,0-2.976-3.884c-7.893-8.24-12.634-8.086-13.4-7.984a40.124,40.124,0,0,1-.783-4.956c-.023-.261-.047-.5-.068-.762l.068-.034q-.07-.739-.125-1.526a39.279,39.279,0,0,0,8.813-6.419c.034.112.063.224.1.339q8.532-7.212,16.711-14.815c1.565-1.463,3.208-3.052,3.74-5.115a7.509,7.509,0,0,0,.2-2.17c.07-1.565-.3-3.164-.363-4.75a5.433,5.433,0,0,1,.063-.751c.365-2.6,2.17-4.726,3.652-6.9a32.556,32.556,0,0,0,5.537-18.639,31.557,31.557,0,0,0-1.3-9.39c-1.155-3.865-3.56-7.927-7.564-8.772a33.312,33.312,0,0,0-4.739-.224c-6.544-.417-11.443-5.738-16.662-9.638a43.978,43.978,0,0,0-21.8-8.461,17.467,17.467,0,0,0-7.355.5c-5.266,1.753-8.464,7.165-13.537,9.39-3.751,1.654-8.086,1.385-12,2.627-5.824,1.852-10.767,7.825-10.9,13.962v.8c-.065,3.1,1.043,6.26,1.132,9.434q0,.43.013.863a28.391,28.391,0,0,1-1.688,10.086c-.673,1.735-1.539,3.743-1.4,5.477a3.666,3.666,0,0,0,.866,2.869l1.26-1.111A38.1,38.1,0,0,0,263.194,159.2q.073,1.171.141,2.509c.2,3.865.355,8.714.31,14l-12.3,11.307-31.623,14.346S190.8,207.471,197.029,248.1L200,273.327h26.4l-.06.133h39.189l.023-.133H358.8l-.018.133h3.652v-.133Zm-94.793-101.6a27.1,27.1,0,0,1,1.878,5.164,21.156,21.156,0,0,1-2.027-5.446l.039.07Zm-44.815,5.217q0,.746-.026,1.5l-.063.089a12.774,12.774,0,0,1,.089-1.607Z" transform="translate(-158.414 -61.729)" fill="url(#linear-gradient)"/>
      <path id="Path_140" data-name="Path 140" d="M491.839,373.907l-5.217,49.818-27.909,8.868s-36.255-6.782-26.865-26.344c6.68-13.915,6.495-38.783,5.832-51.98-.261-5.357-.616-8.793-.616-8.793S484.536,304,480.624,341.3a88.265,88.265,0,0,0-.381,17.282C482,376.958,491.839,373.907,491.839,373.907Z" transform="translate(-331.487 -252.297)" fill="#fdc2cc"/>
      <path id="Path_141" data-name="Path 141" d="M491.839,373.907l-5.217,49.818-27.909,8.868s-36.255-6.782-26.865-26.344c6.68-13.915,6.495-38.783,5.832-51.98-.261-5.357-.616-8.793-.616-8.793S484.536,304,480.624,341.3a88.265,88.265,0,0,0-.381,17.282C482,376.958,491.839,373.907,491.839,373.907Z" transform="translate(-331.487 -252.297)" opacity="0.03"/>
      <path id="Path_142" data-name="Path 142" d="M499.808,338.3a88.267,88.267,0,0,0-.381,17.282,37.838,37.838,0,0,1-42.562-4.317c-.261-5.357-.616-8.793-.616-8.793S503.721,301,499.808,338.3Z" transform="translate(-350.672 -250.08)" opacity="0.1"/>
      <circle id="Ellipse_15" data-name="Ellipse 15" cx="37.82" cy="37.82" r="37.82" transform="translate(92.798 32.931)" fill="#fdc2cc"/>
      <circle id="Ellipse_16" data-name="Ellipse 16" cx="37.82" cy="37.82" r="37.82" transform="translate(92.798 32.931)" opacity="0.03"/>
      <path id="Path_143" data-name="Path 143" d="M409.867,570.871H213.724l-2.869-24.779c-6-39.907,21.91-45.906,21.91-45.906L263.282,486.1l12.129-11.346C271.5,489.623,301.1,520.531,301.1,520.531h0a7.043,7.043,0,0,0,.54-.561c.8-.871,2.7-3.052,7.17-8.461,1.6-1.938,3.524-4.288,5.845-7.141,11.163-13.72,5.436-29.93,3.725-33.282l-.107-.209c-.065-.12-.115-.216-.154-.284a.426.426,0,0,0-.039-.07.414.414,0,0,1-.029-.052L332.4,481.686s.55.146,1.565.433a296.458,296.458,0,0,1,43.3,16C398.651,508.272,409.867,570.871,409.867,570.871Z" transform="translate(-168.658 -359.275)" fill="#6c63ff"/>
      <path id="Path_144" data-name="Path 144" d="M588.692,511.034c-2.347-2.347-18.258-5.217-18.258-5.217.522,6.26-18.78,15.91-18.78,15.91l1.435,49.036h-9.254l-1.565-44.08,4.434-6.26h0l.54-.561a86.1,86.1,0,0,0,7.17-8.461c1.6-1.938,3.524-4.288,5.845-7.142,11.163-13.72,5.436-29.93,3.725-33.282l-.107-.209c-.063-.123-.112-.216-.154-.284a.435.435,0,0,0-.039-.07.411.411,0,0,1-.029-.052h0s4.695-1.043,13.041,7.825a24.444,24.444,0,0,1,2.869,3.824C586.347,492.893,590.761,513.1,588.692,511.034Z" transform="translate(-414.255 -359.168)" fill="#6c63ff"/>
      <path id="Path_145" data-name="Path 145" d="M588.692,511.034c-2.347-2.347-18.258-5.217-18.258-5.217.522,6.26-18.78,15.91-18.78,15.91l1.435,49.036h-9.254l-1.565-44.08,4.434-6.26h0l.54-.561a86.1,86.1,0,0,0,7.17-8.461c1.6-1.938,3.524-4.288,5.845-7.142,11.163-13.72,5.436-29.93,3.725-33.282l-.107-.209c-.063-.123-.112-.216-.154-.284a.435.435,0,0,0-.039-.07.411.411,0,0,1-.029-.052h0s4.695-1.043,13.041,7.825a24.444,24.444,0,0,1,2.869,3.824C586.347,492.893,590.761,513.1,588.692,511.034Z" transform="translate(-414.255 -359.168)" opacity="0.1"/>
      <path id="Path_146" data-name="Path 146" d="M313.25,703.4s12.259,25.039,12.911,39.776" transform="translate(-244.97 -531.451)" opacity="0.1"/>
      <path id="Path_147" data-name="Path 147" d="M763.821,714.31,760.3,739.741h3.521Z" transform="translate(-561.997 -528.012)" opacity="0.1"/>
      <path id="Path_148" data-name="Path 148" d="M323.75,540.524l19.432-44.21s5.477-10.433,6.781-20.866,8.347-26.865,8.347-26.865,17.476-22.17,25.561-19.04-7.042,14.867-7.042,14.867,22.17,8.607,7.042,34.168-15.389,20.866-15.389,20.866l-7.434,41.08Z" transform="translate(-252.732 -328.799)" opacity="0.1"/>
      <path id="Path_149" data-name="Path 149" d="M321.75,540.509l19.432-44.21s5.477-10.433,6.781-20.866c.829-6.633,3.978-15.691,6.161-21.411a32.827,32.827,0,0,1,6.187-10.172c5.65-6.322,15.91-16.518,21.56-14.327,8.086,3.13-7.042,14.867-7.042,14.867S397,453,381.871,478.557s-15.389,20.866-15.389,20.866L359.048,540.5Z" transform="translate(-251.253 -328.783)" fill="#fdc2cc"/>
      <circle id="Ellipse_17" data-name="Ellipse 17" cx="0.782" cy="0.782" r="0.782" transform="translate(141.442 48.711)" fill="#fff" opacity="0.15"/>
      <circle id="Ellipse_18" data-name="Ellipse 18" cx="0.782" cy="0.782" r="0.782" transform="translate(137.79 50.276)" fill="#fff" opacity="0.15"/>
      <path id="Path_150" data-name="Path 150" d="M414.071,97.37c3.774-1.221,7.963-.957,11.583-2.58,4.9-2.2,7.981-7.512,13.062-9.233a16.773,16.773,0,0,1,7.1-.493,42.012,42.012,0,0,1,21.038,8.313c5.037,3.832,9.763,9.056,16.077,9.465a31.37,31.37,0,0,1,4.572.219c3.871.829,6.189,4.818,7.3,8.607a32.41,32.41,0,0,1-4.085,26.761c-1.429,2.139-3.172,4.233-3.524,6.782-.344,2.5.72,5.089.1,7.535-.522,2.027-2.087,3.586-3.61,5.024q-7.89,7.462-16.127,14.541c-2.853-9.066,1.333-18.829.681-28.31-.261-3.693-1.565-7.726-4.823-9.468-3.049-1.628-6.946-.782-10.031-2.347-3.443-1.734-4.857-5.843-7.46-8.686-4.434-4.851-12.131-5.477-18.331-3.286s-11.268,6.7-16.171,11.093l-8.912,7.994c-1.74-1.961-.42-4.971.522-7.423a30.17,30.17,0,0,0,1.617-11.539c-.076-3.13-1.155-6.221-1.093-9.267C403.683,105.061,408.451,99.188,414.071,97.37Z" transform="translate(-310.322 -74.28)" opacity="0.1"/>
      <path id="Path_151" data-name="Path 151" d="M414.071,94.37c3.774-1.221,7.963-.957,11.583-2.58,4.9-2.2,7.981-7.512,13.062-9.233a16.773,16.773,0,0,1,7.1-.493,42.012,42.012,0,0,1,21.038,8.313c5.037,3.832,9.763,9.056,16.077,9.465a31.37,31.37,0,0,1,4.572.219c3.871.829,6.189,4.818,7.3,8.607a32.41,32.41,0,0,1-4.085,26.761c-1.429,2.139-3.172,4.233-3.524,6.782-.344,2.5.72,5.089.1,7.535-.522,2.027-2.087,3.586-3.61,5.024q-7.89,7.462-16.127,14.541c-2.853-9.066,1.333-18.829.681-28.31-.261-3.693-1.565-7.726-4.823-9.468-3.049-1.628-6.946-.783-10.031-2.347-3.443-1.735-4.857-5.843-7.46-8.686-4.434-4.851-12.131-5.477-18.331-3.286s-11.268,6.7-16.171,11.093l-8.912,7.994c-1.74-1.961-.42-4.971.522-7.423a30.17,30.17,0,0,0,1.617-11.539c-.076-3.13-1.155-6.221-1.093-9.267C403.683,102.061,408.451,96.188,414.071,94.37Z" transform="translate(-310.322 -72.062)" fill="#865a61"/>
    </g>
    <g id="Group_137" data-name="Group 137" transform="translate(-6.218)">
      <path id="Path_152" data-name="Path 152" d="M502.549,2678.127l17.237-26.23,65.588-20.359-7.36,17.58,17.409,9.825Z" transform="translate(16.912 -2172.51)" fill="#fff"/>
      <text id="Sell_Parts" data-name="Sell Parts" transform="matrix(0.974, -0.225, 0.225, 0.974, 561.826, 487.643)" fill="#111" stroke="#111" stroke-width="0.2" font-size="12" font-family="RageItalic, Rage"><tspan x="-22.102" y="0">Sell Parts</tspan></text>
    </g>
  </g>
</svg>
